<?xml version="1.0" encoding="iso-8859-1"?>
<!-- Generator: Adobe Illustrator 19.0.0, SVG Export Plug-In . SVG Version: 6.00 Build 0)  -->
<svg version="1.1" id="Layer_1" xmlns="http://www.w3.org/2000/svg" xmlns:xlink="http://www.w3.org/1999/xlink" x="0px" y="0px"
	 viewBox="0 0 480.006 480.006" style="enable-background:new 0 0 480.006 480.006;" width="20pt" height="20pt" xml:space="preserve">
<g>
	<rect x="240.003" y="88.006" style="fill:#78BA8C;" width="16" height="104"/>
	<rect x="432.003" y="88.006" style="fill:#78BA8C;" width="16" height="104"/>
	<rect x="304.003" y="88.006" style="fill:#78BA8C;" width="16" height="104"/>
	<rect x="368.003" y="88.006" style="fill:#78BA8C;" width="16" height="104"/>
	<polygon style="fill:#78BA8C;" points="424.003,208.006 392.003,208.006 360.003,208.006 328.003,208.006 296.003,208.006 
		264.003,208.006 232.003,208.006 224.003,208.006 224.003,224.006 464.003,224.006 464.003,208.006 456.003,208.006 	"/>
	<path style="fill:#78BA8C;" d="M224.003,53.886v18.12h8h32h32h32h32h32h32h32h8v-18.12l-120-37.496L224.003,53.886z
		 M352.003,56.006h-16v-16h16V56.006z"/>
</g>
<g>
	<polygon style="fill:#A6E0B5;" points="256.003,448.006 248.003,448.006 216.003,448.006 184.003,448.006 152.003,448.006 
		120.003,448.006 88.003,448.006 56.003,448.006 24.003,448.006 16.003,448.006 16.003,464.006 256.003,464.006 	"/>
	<rect x="160.003" y="328.006" style="fill:#A6E0B5;" width="16" height="104"/>
	<rect x="96.003" y="328.006" style="fill:#A6E0B5;" width="16" height="104"/>
	<rect x="32.003" y="328.006" style="fill:#A6E0B5;" width="16" height="104"/>
	<rect x="224.003" y="328.006" style="fill:#A6E0B5;" width="16" height="104"/>
	<path style="fill:#A6E0B5;" d="M56.003,312.006h32h32h32h32h32h32h8v-18.12l-120-37.504l-120,37.504v18.12h8H56.003z
		 M128.003,280.006h16v16h-16V280.006z"/>
</g>
<g>
	<path style="fill:#42342A;" d="M264.003,432.006h-8v-104h8c4.416,0,8-3.584,8-8v-32c0-3.504-2.272-6.592-5.616-7.64l-128-40
		c-1.552-0.488-3.216-0.488-4.776,0l-128,40c-3.336,1.048-5.608,4.136-5.608,7.64v32c0,4.416,3.584,8,8,8h8v104h-8
		c-4.416,0-8,3.576-8,8v32c0,4.424,3.584,8,8,8h256c4.416,0,8-3.576,8-8v-32C272.003,435.582,268.419,432.006,264.003,432.006z
		 M240.003,432.006h-16v-104h16V432.006z M192.003,432.006v-104h16v104H192.003z M128.003,432.006v-104h16v104H128.003z
		 M64.003,432.006v-104h16v104H64.003z M96.003,328.006h16v104h-16V328.006z M160.003,328.006h16v104h-16V328.006z M16.003,293.886
		l120-37.504l120,37.504v18.12h-8h-32h-32h-32h-32h-32h-32h-32h-8V293.886z M32.003,328.006h16v104h-16V328.006z M256.003,464.006
		h-240v-16h8h32h32h32h32h32h32h32h8V464.006z"/>
	<path style="fill:#42342A;" d="M472.003,88.006c4.416,0,8-3.584,8-8v-32c0-3.504-2.272-6.592-5.616-7.64l-128-40
		c-1.552-0.488-3.216-0.488-4.776,0l-128,40c-3.336,1.048-5.608,4.136-5.608,7.64v32c0,4.416,3.584,8,8,8h8v104h-8
		c-4.416,0-8,3.584-8,8v32c0,4.416,3.584,8,8,8h256c4.416,0,8-3.584,8-8v-32c0-4.416-3.584-8-8-8h-8v-104H472.003z M224.003,53.886
		l120-37.504l120,37.504v18.12h-8h-32h-32h-32h-32h-32h-32h-32h-8V53.886z M400.003,192.006v-104h16v104H400.003z M336.003,192.006
		v-104h16v104H336.003z M272.003,192.006v-104h16v104H272.003z M304.003,88.006h16v104h-16V88.006z M368.003,88.006h16v104h-16
		V88.006z M240.003,88.006h16v104h-16V88.006z M464.003,224.006h-240v-16h8h32h32h32h32h32h32h32h8V224.006z M448.003,192.006h-16
		v-104h16V192.006z"/>
	<rect x="128.003" y="280.006" style="fill:#42342A;" width="16" height="16"/>
	<rect x="336.003" y="40.006" style="fill:#42342A;" width="16" height="16"/>
	<rect x="64.003" y="104.006" style="fill:#42342A;" width="16" height="16"/>
	<rect x="96.003" y="104.006" style="fill:#42342A;" width="16" height="16"/>
	<rect x="128.003" y="104.006" style="fill:#42342A;" width="16" height="16"/>
	<rect x="160.003" y="104.006" style="fill:#42342A;" width="16" height="16"/>
	<rect x="192.003" y="104.006" style="fill:#42342A;" width="16" height="16"/>
	<rect x="32.003" y="104.006" style="fill:#42342A;" width="16" height="16"/>
	<rect x="32.003" y="136.006" style="fill:#42342A;" width="16" height="16"/>
	<rect x="32.003" y="168.006" style="fill:#42342A;" width="16" height="16"/>
	<rect x="32.003" y="200.006" style="fill:#42342A;" width="16" height="16"/>
	<rect x="32.003" y="232.006" style="fill:#42342A;" width="16" height="16"/>
	<rect x="400.003" y="384.006" style="fill:#42342A;" width="16" height="16"/>
	<rect x="368.003" y="384.006" style="fill:#42342A;" width="16" height="16"/>
	<rect x="336.003" y="384.006" style="fill:#42342A;" width="16" height="16"/>
	<rect x="304.003" y="384.006" style="fill:#42342A;" width="16" height="16"/>
	<rect x="272.003" y="384.006" style="fill:#42342A;" width="16" height="16"/>
	<rect x="432.003" y="384.006" style="fill:#42342A;" width="16" height="16"/>
	<rect x="432.003" y="352.006" style="fill:#42342A;" width="16" height="16"/>
	<rect x="432.003" y="320.006" style="fill:#42342A;" width="16" height="16"/>
	<rect x="432.003" y="288.006" style="fill:#42342A;" width="16" height="16"/>
	<rect x="432.003" y="256.006" style="fill:#42342A;" width="16" height="16"/>
</g>
<g>
</g>
<g>
</g>
<g>
</g>
<g>
</g>
<g>
</g>
<g>
</g>
<g>
</g>
<g>
</g>
<g>
</g>
<g>
</g>
<g>
</g>
<g>
</g>
<g>
</g>
<g>
</g>
<g>
</g>
</svg>
