<svg id="Outline" height="512" viewBox="0 0 512 512" width="512" xmlns="http://www.w3.org/2000/svg"><path d="m24 160a8 8 0 0 0 8-8v-24h56a8 8 0 0 0 0-16h-64a8 8 0 0 0 -8 8v32a8 8 0 0 0 8 8z"/><path d="m488 112h-64a8 8 0 0 0 0 16h56v24a8 8 0 0 0 16 0v-32a8 8 0 0 0 -8-8z"/><path d="m488 352a8 8 0 0 0 -8 8v24h-56a8 8 0 0 0 0 16h64a8 8 0 0 0 8-8v-32a8 8 0 0 0 -8-8z"/><path d="m24 400h64a8 8 0 0 0 0-16h-56v-24a8 8 0 0 0 -16 0v32a8 8 0 0 0 8 8z"/><path d="m488 208h-32v-56a8 8 0 0 0 -16 0v56h-16v-56a8 8 0 0 0 -16 0v56h-48v-56a8 8 0 0 0 -16 0v56h-16v-56a8 8 0 0 0 -16 0v56h-16v-56a8 8 0 0 0 -16 0v56h-16v-56a8 8 0 0 0 -16 0v56h-16v-56a8 8 0 0 0 -16 0v56h-16v-56a8 8 0 0 0 -16 0v56h-16v-56a8 8 0 0 0 -16 0v56h-48v-56a8 8 0 0 0 -16 0v56h-16v-56a8 8 0 0 0 -16 0v56h-32a8 8 0 0 0 0 16h32v136a8 8 0 0 0 16 0v-136h16v136a8 8 0 0 0 16 0v-136h48v120a8 8 0 0 0 16 0v-120h16v120a8 8 0 0 0 16 0v-120h16v120a8 8 0 0 0 16 0v-120h16v120a8 8 0 0 0 16 0v-120h16v120a8 8 0 0 0 16 0v-120h16v120a8 8 0 0 0 16 0v-120h16v120a8 8 0 0 0 16 0v-120h48v136a8 8 0 0 0 16 0v-136h16v136a8 8 0 0 0 16 0v-136h32a8 8 0 0 0 0-16z"/></svg>