<svg height="404pt" viewBox="0 -9 404.003 404" width="404pt" xmlns="http://www.w3.org/2000/svg"><path d="m404 146.109375c-.066406-3.367187-2.792969-6.070313-6.160156-6.109375h-30.839844v-133.699219c-.191406-3.457031-3-6.195312-6.464844-6.300781h-317.070312c-3.464844.105469-6.273438 2.84375-6.464844 6.300781v133.699219h-30.839844c-3.367187.039062-6.0937498 2.742188-6.160156 6.109375v233.59375c.0507812 3.402344 2.757812 6.171875 6.160156 6.296875h391.671875c.015625 0 .03125-.152344.046875-.152344.222656-.023437.445313-.066406.667969-.117187.058594-.007813.121094-.054688.183594-.066407.183593-.027343.363281-.078124.539062-.121093.058594-.015625.113281-.039063.171875-.054688.199219-.054687.398438-.125.589844-.199219l.082031-.035156c.222657-.089844.4375-.191406.644531-.308594.046876-.027343.089844-.054687.132813-.082031.15625-.089843.304687-.191406.453125-.300781l.1875-.140625c.144531-.109375.28125-.230469.410156-.351563.042969-.039062.085938-.074218.125-.113281.164063-.164062.320313-.339843.464844-.523437.035156-.046875.074219-.097656.109375-.144532.121094-.164062.234375-.332031.339844-.507812.015625-.027344.035156-.050781.050781-.078125.019531-.027344.019531-.035156.03125-.054687.066406-.121094.128906-.242188.1875-.371094.027344-.054688.054688-.109375.078125-.164063.054687-.121093.101563-.246093.148437-.371093.019532-.0625.046876-.125.070313-.191407.035156-.109375.0625-.226562.09375-.339843.019531-.078126.042969-.160157.0625-.238282.019531-.101562.035156-.199218.050781-.300781.015625-.097656.035156-.199219.046875-.300781.007813-.097656.011719-.175782.019531-.265625.007813-.109375.097657-.222657.097657-.332031 0-.027344.085937-.054688.085937-.078126zm-392 16.371094 113.671875 140.953125-113.671875 65.539062zm190 111.191406 173.476562 100.328125h-347.488281zm79.410156 31.671875 110.589844-142.382812v206.339843zm103.664063-153.34375-18.074219 23.976562v-23.976562zm-30.074219-140v179.425781l-84.007812 107.855469-65.871094-38.03125c-1.878906-1.070312-4.183594-1.070312-6.058594 0l-62.910156 36.121094-87.152344-107.753906v-177.617188zm-318 162.738281-17.785156-22.738281h17.785156zm0 0"/><path d="m160.515625 74c0 3.316406 2.6875 6 6 6h44.007813c-2.679688 11-12.289063 18-23.699219 18h-20.308594c-2.488281.113281-4.675781 1.691406-5.570313 4.019531-.894531 2.328125-.324218 4.960938 1.449219 6.714844l50.753907 48.019531c1.148437 1.105469 2.691406 1.707032 4.285156 1.667969 1.589844-.035156 3.101562-.707031 4.199218-1.859375 2.273438-2.503906 2.167969-6.351562-.238281-8.722656l-39.792969-37.839844h5.21875c17.6875.078125 32.859376-12.585938 35.945313-30h14.714844c3.3125 0 6-2.683594 6-6 0-3.3125-2.6875-6-6-6h-14.710938c-1.144531-6.746094-4.253906-13.007812-8.9375-18h23.652344c3.3125 0 6-2.683594 6-6 0-3.3125-2.6875-6-6-6h-70.96875c-3.3125 0-6 2.6875-6 6 0 3.316406 2.6875 6 6 6h20.308594c11.410156 0 21.019531 7 23.699219 18h-44.007813c-3.3125 0-6 2.6875-6 6zm0 0"/><path d="m123.464844 202h157.070312c3.316406 0 6-2.683594 6-6 0-3.3125-2.683594-6-6-6h-157.070312c-3.316406 0-6 2.6875-6 6 0 3.316406 2.683594 6 6 6zm0 0"/><path d="m123.464844 232h157.070312c3.316406 0 6-2.683594 6-6 0-3.3125-2.683594-6-6-6h-157.070312c-3.316406 0-6 2.6875-6 6 0 3.316406 2.683594 6 6 6zm0 0"/></svg>