<svg width="20pt" height="20pt" viewBox="0 0 512 512" xmlns="http://www.w3.org/2000/svg"><g><g><rect fill="#ff9811" height="320" rx="40" width="480" x="16" y="96"/><rect fill="#ffda44" height="96" rx="16" width="128" x="48" y="128"/><circle cx="416" cy="176" fill="#d80027" r="48"/><g fill="#57565c"><path d="m344 304h120v32h-120z"/><path d="m392 360h72v24h-72z"/></g></g><g><path d="m456 88h-400a48.051 48.051 0 0 0 -48 48v240a48.051 48.051 0 0 0 48 48h400a48.051 48.051 0 0 0 48-48v-240a48.051 48.051 0 0 0 -48-48zm32 288a32.036 32.036 0 0 1 -32 32h-400a32.036 32.036 0 0 1 -32-32v-240a32.036 32.036 0 0 1 32-32h400a32.036 32.036 0 0 1 32 32z"/><path d="m160 120h-96a24.032 24.032 0 0 0 -24 24v64a24.032 24.032 0 0 0 24 24h96a24.032 24.032 0 0 0 24-24v-64a24.032 24.032 0 0 0 -24-24zm-104 48h32v16h-32zm112 16h-32v-16h32zm0-32h-32a8 8 0 0 0 -16 0v48a8 8 0 0 0 16 0h32v8a8.011 8.011 0 0 1 -8 8h-96a8.011 8.011 0 0 1 -8-8v-8h32a8 8 0 0 0 16 0v-48a8 8 0 0 0 -16 0h-32v-8a8.011 8.011 0 0 1 8-8h96a8.011 8.011 0 0 1 8 8z"/><path d="m416 120a56 56 0 1 0 56 56 56.063 56.063 0 0 0 -56-56zm0 96a40 40 0 1 1 40-40 40.045 40.045 0 0 1 -40 40z"/><path d="m464 296h-120a8 8 0 0 0 -8 8v32a8 8 0 0 0 8 8h120a8 8 0 0 0 8-8v-32a8 8 0 0 0 -8-8zm-8 32h-104v-16h104z"/><path d="m464 352h-72a8 8 0 0 0 -8 8v24a8 8 0 0 0 8 8h72a8 8 0 0 0 8-8v-24a8 8 0 0 0 -8-8zm-8 24h-56v-8h56z"/><path d="m48 344h144a8 8 0 0 0 0-16h-144a8 8 0 0 0 0 16z"/><path d="m224 328h-8a8 8 0 0 0 0 16h8a8 8 0 0 0 0-16z"/><path d="m224 352h-176a8 8 0 0 0 0 16h176a8 8 0 0 0 0-16z"/><path d="m144 376h-96a8 8 0 0 0 0 16h96a8 8 0 0 0 0-16z"/></g></g></svg>