<svg id="Filled" height="512" viewBox="0 0 512 512" width="512" xmlns="http://www.w3.org/2000/svg"><path d="m40 72h448v416h-448z" fill="#c3c6c7"/><path d="m24 56h432v400h-432z" fill="#e9eef2"/><path d="m24 56h432v96h-432z" fill="#eb423f"/><rect fill="#f89f00" height="160" rx="16" width="128" x="112" y="232"/><rect fill="#95573a" height="160" rx="16" transform="matrix(0 1 -1 0 656 80)" width="96" x="240" y="288"/><path d="m488 64h-24v-8a8 8 0 0 0 -8-8h-56v-8a24 24 0 0 0 -48 0v8h-16v-8a24 24 0 0 0 -48 0v8h-96v-8a24 24 0 0 0 -48 0v8h-16v-8a24 24 0 0 0 -48 0v8h-56a8 8 0 0 0 -8 8v400a8 8 0 0 0 8 8h8v24a8 8 0 0 0 8 8h448a8 8 0 0 0 8-8v-416a8 8 0 0 0 -8-8zm-456 384v-288h416v288zm336-408a8 8 0 0 1 16 0v8h-16zm-64 0a8 8 0 0 1 16 0v8h-16zm-144 0a8 8 0 0 1 16 0v8h-16zm-64 0a8 8 0 0 1 16 0v8h-16zm-16 24v8a24.028 24.028 0 0 0 24 24 8 8 0 0 0 0-16 8.009 8.009 0 0 1 -8-8v-8h48v8a24.028 24.028 0 0 0 24 24 8 8 0 0 0 0-16 8.009 8.009 0 0 1 -8-8v-8h128v8a24.028 24.028 0 0 0 24 24 8 8 0 0 0 0-16 8.009 8.009 0 0 1 -8-8v-8h48v8a24.028 24.028 0 0 0 24 24 8 8 0 0 0 0-16 8.009 8.009 0 0 1 -8-8v-8h80v80h-416v-80zm400 416h-432v-16h408a8 8 0 0 0 8-8v-376h16z"/><path d="m128 224a24.028 24.028 0 0 0 -24 24v128a24.028 24.028 0 0 0 24 24h8v8a8 8 0 0 0 16 0v-8h49.376a24.039 24.039 0 0 0 22.624 16h128a24.028 24.028 0 0 0 24-24v-64a24.028 24.028 0 0 0 -24-24h-16v-8a24.028 24.028 0 0 0 -24-24h-56a23.889 23.889 0 0 0 -8 1.376v-25.376a24.028 24.028 0 0 0 -24-24v-8a24.028 24.028 0 0 0 -24-24h-48a24.028 24.028 0 0 0 -24 24zm88 168v-64a8.009 8.009 0 0 1 8-8h24v80h-24a8.009 8.009 0 0 1 -8-8zm96-72v80h-48v-80zm48 8v64a8.009 8.009 0 0 1 -8 8h-24v-80h24a8.009 8.009 0 0 1 8 8zm-104-40h56a8.009 8.009 0 0 1 8 8v8h-72v-8a8.009 8.009 0 0 1 8-8zm-24-40v56h-8a23.889 23.889 0 0 0 -8 1.376v-25.376a8 8 0 0 0 -16 0v104h-72a8.009 8.009 0 0 1 -8-8v-128a8.009 8.009 0 0 1 8-8h96a8.009 8.009 0 0 1 8 8zm-80-40h48a8.009 8.009 0 0 1 8 8v8h-64v-8a8.009 8.009 0 0 1 8-8z"/><path d="m144 272a8 8 0 0 0 -8 8v64a8 8 0 0 0 16 0v-64a8 8 0 0 0 -8-8z"/><path d="m176 272a8 8 0 0 0 -8 8v64a8 8 0 0 0 16 0v-64a8 8 0 0 0 -8-8z"/></svg>