<?xml version="1.0" standalone="no"?>
<!DOCTYPE svg PUBLIC "-//W3C//DTD SVG 20010904//EN"
 "http://www.w3.org/TR/2001/REC-SVG-20010904/DTD/svg10.dtd">
<svg version="1.0" xmlns="http://www.w3.org/2000/svg"
 width="20pt" height="20pt" viewBox="0 0 715.000000 715.000000"
 preserveAspectRatio="xMidYMid meet">
<g transform="translate(0.000000,715.000000) scale(0.100000,-0.100000)"
fill="#673ab6" stroke="none">
<path d="M3330 6824 c-241 -22 -547 -84 -759 -153 -411 -134 -813 -362 -1134
-645 -539 -474 -891 -1070 -1046 -1771 -52 -236 -66 -374 -66 -680 0 -306 14
-444 66 -680 135 -610 425 -1151 851 -1586 513 -524 1141 -844 1873 -957 155
-23 197 -26 470 -26 273 0 315 3 470 26 957 147 1768 676 2278 1487 83 133
228 418 272 536 95 255 154 478 193 730 23 153 26 199 26 465 0 332 -14 465
-78 740 -287 1223 -1240 2170 -2462 2444 -227 51 -381 68 -654 71 -140 2 -275
1 -300 -1z m178 -861 c11 -10 153 -245 315 -523 162 -278 342 -584 399 -680
l104 -175 313 -5 313 -5 19 -24 c11 -13 17 -31 14 -38 -3 -8 -5 -105 -5 -215
l0 -200 -29 -29 -29 -29 -196 0 -196 0 0 -1321 0 -1321 -29 -29 -29 -29 -197
0 c-121 0 -204 4 -217 11 -45 24 -48 54 -48 463 l0 385 -78 -29 c-216 -79
-457 -83 -662 -12 -257 89 -482 298 -572 530 -74 189 -72 167 -76 790 l-3 562
-205 0 -206 0 -29 29 -29 29 0 211 c0 207 0 210 24 238 l24 28 855 5 855 5
-479 643 c-516 692 -506 676 -454 727 l24 25 244 0 c219 0 247 -2 265 -17z"/>
<path d="M3162 3498 l3 -543 28 -59 c94 -202 311 -301 518 -236 120 37 211
117 266 236 l28 59 3 543 3 542 -426 0 -426 0 3 -542z"/>
</g>
</svg>
