<svg xmlns="http://www.w3.org/2000/svg"
	 width="220" height="250" viewBox="220 50 90 400" ><path d="m244.161 211.749h25.431a0 0 0 0 1 0 0v71.7a10.573 10.573 0 0 1 -10.573 10.573h-4.285a10.573 10.573 0 0 1 -10.573-10.573v-71.7a0 0 0 0 1 0 0z" fill="#ffd3b3" transform="matrix(.978 -.209 .209 .978 -47.258 59.394)"/><path d="m260.7 210-6.421-29.987a12.7 12.7 0 0 0 -12.436-10.028c-.877 0-88.879 0-89.756 0a12.7 12.7 0 0 0 -12.437 10.028l-6.425 29.987 24.867 5.325 1.471-7.448v65.323h74.8v-65.324l1.47 7.448z" fill="#ffe352" style="&#10;    fill: none;&#10;    stroke-width: 2pt;&#10;    /* stroke: #919191; */&#10;"/><path d="m260.696 209.999-24.867 5.325-1.159-5.871 24.773-5.305z" fill="#ffb236" style="&#10;    fill: grey;&#10;"/><path d="m134.9 211.749h4.285a10.573 10.573 0 0 1 10.573 10.573v71.7a0 0 0 0 1 0 0h-25.429a0 0 0 0 1 0 0v-71.7a10.573 10.573 0 0 1 10.571-10.573z" fill="#ffd3b3" transform="matrix(-.978 -.209 .209 -.978 218.098 528.865)"/><path d="m133.225 209.999 24.867 5.325 1.159-5.871-24.773-5.305z" fill="#ffb236" style="&#10;    fill: grey;&#10;"/><path d="m226.879 113.886h1.48a6 6 0 0 1 6 6v10.439a6 6 0 0 1 -6 6h-1.48a0 0 0 0 1 0 0v-22.439a0 0 0 0 1 0 0z" fill="#ffd3b3"/><path d="m159.562 113.886h1.48a6 6 0 0 1 6 6v10.439a6 6 0 0 1 -6 6h-1.48a0 0 0 0 1 0 0v-22.439a0 0 0 0 1 0 0z" fill="#ffd3b3" transform="matrix(-1 0 0 -1 326.604 250.211)"/><path d="m196.961 190.179a20.219 20.219 0 0 0 20.195-20.195h-40.39a20.218 20.218 0 0 0 20.195 20.195z" fill="#ffb236" style="&#10;    fill: grey;&#10;"/><path d="m159.563 273.203v151.838h31.414v-120.423h11.968v120.423h31.414v-151.838z" fill="#6e83b7" style="&#10;    /* stroke: #919191; */&#10;    fill: #474747;&#10;"/><path d="m184.245 161.008h25.431a0 0 0 0 1 0 0v11.118a10.573 10.573 0 0 1 -10.576 10.574h-4.285a10.573 10.573 0 0 1 -10.573-10.573v-11.119a0 0 0 0 1 .003 0z" fill="#fcb98b"/><path d="m200.7 440h35.9v-6.732a17.951 17.951 0 0 0 -17.951-17.951 17.951 17.951 0 0 0 -17.949 17.951z" fill="#d3d3d3"/><path d="m157.319 440h35.9v-6.732a17.951 17.951 0 0 0 -17.951-17.951 17.951 17.951 0 0 0 -17.951 17.951z" fill="#d3d3d3"/><path d="m167.042 101.7h59.837a0 0 0 0 1 0 0v40.409a24.878 24.878 0 0 1 -24.879 24.883h-10.08a24.878 24.878 0 0 1 -24.878-24.878v-40.414a0 0 0 0 1 0 0z" fill="#ffd3b3" style="&#10;"/><path d="m196.961 72a32.911 32.911 0 0 0 -32.911 32.911v8.975h2.943l.049 22.439 5.984-22.439h47.874l5.983 22.439-.049-22.439h3.041v-8.975a32.91 32.91 0 0 0 -32.914-32.911z" fill="#6e83b7" style="&#10;    fill: #474747;&#10;"/><rect fill="#80d6fb" height="157.073" rx="20" width="104.715" x="288.912" y="264.976" style="&#10;    fill: #aeaeae;&#10;"/><path d="m311.351 218.602h59.837v14.959h-59.837z" fill="#80d6fb"/><path d="m318.83 233.561h7.48v31.415h-7.48z" fill="#d3d3d3"/><g fill="#46bee8" style="&#10;    fill: grey;&#10;"><rect height="104.715" rx="3.11" width="7.48" x="348.001" y="291.154"/><rect height="104.715" rx="3.11" width="7.48" x="369.692" y="291.154"/><rect height="104.715" rx="3.11" transform="matrix(-1 0 0 -1 661.596 687.024)" width="7.48" x="327.058" y="291.154"/><rect height="104.715" rx="3.11" transform="matrix(-1 0 0 -1 618.213 687.024)" width="7.48" x="305.367" y="291.154"/></g><path d="m356.229 233.561h7.48v31.415h-7.48z" fill="#d3d3d3" transform="matrix(-1 0 0 -1 719.937 498.537)"/><circle cx="378.668" cy="425.041" fill="#6e83b7" r="14.959"/><circle cx="378.668" cy="425.041" fill="#466089" r="7.48"/><circle cx="303.871" cy="425.041" fill="#6e83b7" r="14.959"/><circle cx="303.871" cy="425.041" fill="#466089" r="7.48"/></svg>